<?xml version="1.0" encoding="UTF-8" ?>
<!DOCTYPE svg PUBLIC "-//W3C//DTD SVG 1.1//EN" "http://www.w3.org/Graphics/SVG/1.1/DTD/svg11.dtd">
<svg width="542pt" height="164pt" viewBox="0 0 542 164" version="1.1" xmlns="http://www.w3.org/2000/svg">
<g id="#ffffffff">
<path fill="#ffffff" opacity="1.00" d=" M 96.79 11.12 C 96.21 6.50 99.20 1.49 103.99 0.75 C 109.67 -0.77 115.98 3.55 116.43 9.45 C 117.85 26.78 118.61 44.17 119.02 61.55 C 135.19 51.70 158.97 55.21 170.10 71.00 C 177.16 80.95 177.21 93.74 176.57 105.41 C 175.50 115.44 169.95 124.87 161.53 130.46 C 155.57 134.87 147.96 136.01 140.75 136.45 C 132.21 136.57 123.60 134.16 116.49 129.40 C 115.86 133.58 112.97 137.63 108.59 138.36 C 102.41 140.29 96.34 134.14 96.75 128.04 C 96.81 109.52 97.56 91.01 98.67 72.52 C 99.06 52.04 98.54 31.54 96.79 11.12 M 135.46 77.75 C 127.98 79.29 121.88 84.76 118.15 91.22 C 117.87 95.63 117.32 100.05 117.35 104.47 C 125.01 113.20 137.61 117.89 148.87 113.78 C 154.43 110.69 157.47 104.23 157.27 97.99 C 157.42 91.34 156.22 83.51 150.14 79.62 C 145.91 76.49 140.36 76.60 135.46 77.75 Z" />
<path fill="#ffffff" opacity="1.00" d=" M 358.41 8.79 C 359.30 2.13 367.52 -1.59 373.29 1.63 C 376.77 3.39 378.34 7.52 377.94 11.26 C 376.22 31.59 375.68 52.02 376.09 72.42 C 377.17 90.98 377.96 109.56 378.00 128.14 C 378.14 132.99 374.68 137.74 369.83 138.63 C 364.23 139.44 358.80 135.06 358.31 129.42 C 348.86 135.63 336.96 137.88 325.90 135.52 C 313.97 133.73 303.81 124.51 299.95 113.22 C 297.41 106.04 297.87 98.32 298.16 90.85 C 298.70 81.66 302.14 72.37 308.95 65.98 C 321.37 54.58 341.38 52.81 355.73 61.59 C 356.17 43.98 356.86 26.35 358.41 8.79 M 319.80 84.85 C 317.45 89.39 317.30 94.66 317.43 99.65 C 317.62 105.26 320.68 110.62 325.41 113.62 C 336.80 118.04 349.89 113.25 357.48 104.12 C 356.98 99.92 357.01 95.66 356.51 91.47 C 351.74 81.78 340.59 75.61 329.83 77.26 C 325.69 78.33 321.72 80.93 319.80 84.85 Z" />
<path fill="#ffffff" opacity="1.00" d=" M 1.39 43.01 C 4.07 36.53 13.67 35.70 17.89 41.09 C 22.48 46.99 19.79 54.99 20.48 61.83 C 28.17 56.62 37.93 54.10 47.04 56.65 C 53.11 58.42 59.60 61.39 62.68 67.25 C 67.04 74.42 69.95 82.49 70.94 90.84 C 72.00 100.54 72.39 110.31 72.25 120.06 C 72.14 124.24 72.88 128.76 70.74 132.57 C 67.61 138.51 58.11 139.35 54.02 134.00 C 51.29 130.55 51.86 125.94 51.62 121.84 C 50.86 111.86 50.86 101.83 49.70 91.88 C 49.22 87.60 47.75 83.40 45.36 79.82 C 42.95 76.86 38.72 77.50 35.47 78.37 C 31.04 79.31 27.67 83.04 26.30 87.24 C 21.44 99.94 22.19 113.74 21.52 127.07 C 22.05 132.81 17.81 138.37 12.22 139.60 C 6.52 141.24 -0.04 136.30 0.49 130.16 C 0.60 121.96 0.84 105.55 0.96 97.35 L 0.00 109.95 L 0.00 71.14 L 0.96 85.20 C 0.84 75.71 0.60 56.74 0.48 47.25 L 1.39 43.01 Z" />
<path fill="#ffffff" opacity="1.00" d=" M 229.49 49.79 C 237.94 47.75 246.99 49.41 254.54 53.54 C 263.77 58.82 270.48 67.88 273.99 77.81 C 277.77 89.12 277.33 101.83 272.63 112.80 C 267.53 124.42 257.59 134.44 244.96 137.34 C 236.82 139.62 228.04 138.04 220.60 134.32 C 211.56 129.64 205.05 121.10 201.29 111.80 C 197.95 103.59 197.71 94.49 198.65 85.80 C 201.00 69.39 212.60 53.20 229.49 49.79 M 233.41 70.67 C 230.84 71.41 228.45 72.78 226.51 74.62 C 216.59 84.34 216.14 101.92 225.51 112.16 C 228.41 115.44 232.69 117.37 237.05 117.52 C 242.30 117.28 247.24 114.27 249.95 109.79 C 257.04 99.56 256.23 84.70 247.98 75.37 C 244.39 71.49 238.64 68.93 233.41 70.67 Z" />
<path fill="#ffffff" opacity="1.00" d=" M 403.77 54.54 C 409.31 52.84 416.09 54.65 419.10 59.83 C 426.26 73.18 433.58 86.45 440.67 99.85 C 447.83 86.62 454.91 73.36 462.02 60.10 C 464.77 54.83 471.77 52.62 477.22 54.66 C 480.56 56.53 483.01 60.30 482.79 64.21 C 482.82 67.62 480.92 70.59 479.34 73.47 C 464.07 101.53 448.81 129.60 433.53 157.66 C 431.55 161.30 427.43 164.07 423.18 163.46 C 418.70 162.63 414.25 159.59 413.06 155.00 C 412.16 151.83 413.28 148.52 414.78 145.72 C 419.14 137.59 423.48 129.45 427.83 121.31 C 418.46 104.27 409.18 87.18 399.90 70.09 C 397.89 64.74 400.03 58.63 403.77 54.54 Z" />
<path fill="#ffffff" opacity="1.00" d=" M 519.51 97.67 C 528.23 94.72 538.80 100.10 540.91 109.18 C 543.85 119.13 536.22 130.86 525.65 131.32 C 515.37 132.18 506.44 121.95 507.89 111.91 C 508.45 105.41 513.28 99.54 519.51 97.67 Z" />
</g>
</svg>
